<svg xmlns="http://www.w3.org/2000/svg" xmlns:xlink="http://www.w3.org/1999/xlink" viewBox="0 0 720 504"><defs><style>.cls-1{isolation:isolate;}.cls-16,.cls-2{fill:#fff;}.cls-3{fill:#c7ccd1;}.cls-4{fill:url(#linear-gradient);}.cls-5{fill:#f59059;}.cls-19,.cls-20,.cls-42,.cls-44,.cls-6{fill:none;stroke-miterlimit:10;}.cls-42,.cls-44,.cls-6{stroke:#231f20;}.cls-20,.cls-42,.cls-44,.cls-6{stroke-linecap:round;}.cls-6{stroke-width:1.08px;}.cls-7{fill:url(#linear-gradient-2);}.cls-8{fill:#242358;}.cls-9{fill:#f69d80;}.cls-10{fill:#e1e7ef;}.cls-11{fill:#373075;}.cls-12{fill:#1251c3;}.cls-13{fill:#094082;}.cls-14{fill:#ee5763;}.cls-15{fill:#a53447;}.cls-16{opacity:0.36;mix-blend-mode:overlay;}.cls-17{fill:#cd7860;}.cls-18{fill:#1f1a4d;}.cls-19,.cls-20{stroke:#000;stroke-width:2.42px;}.cls-21{fill:#f69e80;}.cls-22{fill:#242259;}.cls-23{fill:#403981;}.cls-24{fill:#ce7961;}.cls-25{fill:url(#linear-gradient-3);}.cls-26{fill:url(#linear-gradient-4);}.cls-27{fill:#e3e3e3;}.cls-28{fill:url(#linear-gradient-5);}.cls-29{fill:#ffd788;}.cls-30{fill:url(#linear-gradient-6);}.cls-31{opacity:0.24;mix-blend-mode:multiply;}.cls-32{fill:#3c88fd;}.cls-33{fill:url(#linear-gradient-7);}.cls-34{fill:#201851;}.cls-35{fill:url(#linear-gradient-8);}.cls-36{fill:url(#linear-gradient-9);}.cls-37{fill:url(#linear-gradient-10);}.cls-38{fill:url(#linear-gradient-11);}.cls-39{fill:#232059;}.cls-40{fill:#3d86fa;}.cls-41{fill:#1351be;}.cls-42{stroke-width:1.08px;}.cls-43{fill:#423981;}.cls-44{stroke-width:0.52px;}</style><linearGradient id="linear-gradient" x1="261.18" y1="278.15" x2="177.45" y2="113.34" gradientTransform="matrix(-1, 0, 0, 1, 347.92, 0)" gradientUnits="userSpaceOnUse"><stop offset="0" stop-color="#f69a5e"/><stop offset="0.29" stop-color="#faac60"/><stop offset="0.71" stop-color="#fec062"/><stop offset="1" stop-color="#ffc763"/></linearGradient><linearGradient id="linear-gradient-2" x1="-172.04" y1="272.91" x2="-255.77" y2="108.1" xlink:href="#linear-gradient"/><linearGradient id="linear-gradient-3" x1="533.82" y1="264.37" x2="416.96" y2="321.09" gradientUnits="userSpaceOnUse"><stop offset="0.05" stop-color="#fbd15b"/><stop offset="1" stop-color="#f9a45a"/></linearGradient><linearGradient id="linear-gradient-4" x1="496.35" y1="219.34" x2="446.23" y2="274.45" gradientUnits="userSpaceOnUse"><stop offset="0.05" stop-color="#fad05a"/><stop offset="0.33" stop-color="#fac85a"/><stop offset="0.77" stop-color="#f9b159"/><stop offset="1" stop-color="#f8a359"/></linearGradient><linearGradient id="linear-gradient-5" x1="509.28" y1="231.1" x2="459.16" y2="286.21" xlink:href="#linear-gradient-4"/><linearGradient id="linear-gradient-6" x1="526.43" y1="288.84" x2="556.42" y2="269.93" gradientUnits="userSpaceOnUse"><stop offset="0" stop-color="#232059"/><stop offset="0.2" stop-color="#28255b"/><stop offset="0.44" stop-color="#373362"/><stop offset="0.71" stop-color="#504a6d"/><stop offset="0.88" stop-color="#635b75"/></linearGradient><linearGradient id="linear-gradient-7" x1="417.22" y1="185.34" x2="464.49" y2="141.34" gradientUnits="userSpaceOnUse"><stop offset="0" stop-color="#f4aa2e"/><stop offset="1" stop-color="#ffca5a"/></linearGradient><linearGradient id="linear-gradient-8" x1="162.99" y1="419.51" x2="162.99" y2="290.9" gradientUnits="userSpaceOnUse"><stop offset="0" stop-color="#232059"/><stop offset="1" stop-color="#ad69da"/></linearGradient><linearGradient id="linear-gradient-9" x1="180.93" y1="419.51" x2="180.93" y2="290.9" xlink:href="#linear-gradient-8"/><linearGradient id="linear-gradient-10" x1="191.65" y1="358.16" x2="177.93" y2="406" gradientUnits="userSpaceOnUse"><stop offset="0" stop-color="#fff5b7"/><stop offset="1" stop-color="#d17e2c"/></linearGradient><linearGradient id="linear-gradient-11" x1="205.75" y1="362.2" x2="192.03" y2="410.04" xlink:href="#linear-gradient-10"/></defs><g class="cls-1"><g id="Layer_2" data-name="Layer 2"><g id="Layer_1-2" data-name="Layer 1"><rect class="cls-2" width="720" height="504"/><ellipse class="cls-3" cx="372.65" cy="460.15" rx="218.75" ry="8.11"/><g id="TREES"><g id="TREE"><g id="tree-2" data-name="tree"><path class="cls-4" d="M153.37,251.72C126,250,94.48,219.07,102.8,200s10.22-31.77,1.81-44.69c-7.64-11.72,20.86-61.36,10-80.38,4-3.83,9.63-6,14.79-4.21,6.55,2.23,9.81,9.45,11.87,16.06A153.53,153.53,0,0,1,146.48,109c1.1,7.2,1.88,14.95,6.53,20.55,5.12,6.15,13.74,8.25,19.43,13.87a21.2,21.2,0,0,1,5.9,18.28c-1,5.8-4.32,10.87-6.7,16.24s-3.76,11.86-.84,17c2.58,4.49,7.78,6.71,11.39,10.42,4.61,4.74,6.32,11.81,5.5,18.37s-3.95,12.65-7.89,18a61.38,61.38,0,0,1-6.84,7.74A55.14,55.14,0,0,1,153.37,251.72Z"/><path class="cls-5" d="M126.4,279.47c-5.82-12.6-26.84-21.36-35-28.31C82.85,243.83,75,234,73.37,222.49c-1.84-12.86,5.19-19.74,11.11-29.84,9.8-16.74-10-33.16-3.31-50,3.46-8.66,13.64-12.53,19.12-20.07,4.38-6,5.36-13.83,6-21.26s1.07-15.17,4.68-21.7a20,20,0,0,1,3.73-4.78c10.81,19-17.69,68.66-10,80.38,8.41,12.92,6.51,25.58-1.81,44.69s23.23,50,50.57,51.77a55.14,55.14,0,0,0,19.59-2.3A61.21,61.21,0,0,1,159.87,259C148.25,265.36,133.87,268.53,126.4,279.47Z"/></g><line class="cls-6" x1="126.4" y1="129.6" x2="126.4" y2="428.98"/><line class="cls-6" x1="126.4" y1="168.59" x2="142.21" y2="148.89"/><line class="cls-6" x1="126.4" y1="209.1" x2="142.21" y2="189.4"/><line class="cls-6" x1="126.4" y1="191.38" x2="110.59" y2="171.68"/><line class="cls-6" x1="126.4" y1="227.52" x2="110.59" y2="207.83"/><line class="cls-6" x1="126.4" y1="251.11" x2="142.21" y2="231.42"/></g><g id="TREE-3" data-name="TREE"><g id="tree-4" data-name="tree"><path class="cls-7" d="M586.59,246.47c-27.34-1.75-58.89-32.65-50.57-51.77s10.22-31.77,1.81-44.69c-7.64-11.72,20.87-61.36,10-80.38,4-3.83,9.63-6,14.8-4.21,6.54,2.23,9.8,9.46,11.86,16.06a152.36,152.36,0,0,1,5.16,22.32c1.1,7.2,1.88,14.94,6.54,20.54,5.11,6.15,13.74,8.25,19.42,13.87a21.21,21.21,0,0,1,5.9,18.29c-1,5.79-4.32,10.86-6.7,16.23s-3.76,11.86-.83,17c2.57,4.49,7.78,6.71,11.38,10.42,4.61,4.74,6.32,11.81,5.5,18.37s-3.95,12.65-7.89,18a62.17,62.17,0,0,1-6.84,7.75A55.37,55.37,0,0,1,586.59,246.47Z"/><path class="cls-5" d="M559.62,274.22c-5.82-12.6-26.84-21.36-35-28.31-8.58-7.33-16.42-17.17-18.06-28.66-1.84-12.87,5.19-19.75,11.11-29.85,9.8-16.74-10-33.15-3.31-50,3.46-8.66,13.64-12.53,19.12-20.08,4.38-6,5.36-13.83,6-21.26s1.06-15.17,4.67-21.69a20,20,0,0,1,3.73-4.79c10.82,19-17.69,68.66-10,80.38,8.41,12.92,6.51,25.58-1.81,44.69s23.23,50,50.57,51.77a55.37,55.37,0,0,0,19.59-2.29,61.9,61.9,0,0,1-13.09,9.59C581.47,260.11,567.09,263.28,559.62,274.22Z"/></g><line class="cls-6" x1="559.62" y1="124.35" x2="559.62" y2="423.73"/><line class="cls-6" x1="559.62" y1="163.34" x2="575.43" y2="143.64"/><line class="cls-6" x1="559.62" y1="203.85" x2="575.43" y2="184.15"/><line class="cls-6" x1="559.62" y1="186.13" x2="543.81" y2="166.44"/><line class="cls-6" x1="559.62" y1="222.27" x2="543.81" y2="202.58"/><line class="cls-6" x1="559.62" y1="245.86" x2="575.43" y2="226.17"/></g></g><g id="MAN"><g id="SHOES"><path class="cls-8" d="M249.61,386.44,228.56,399a1.66,1.66,0,0,0-.53,2.35l29.28,43.83a1.73,1.73,0,0,0,2.6.33c1.64-1.52,4-4.23,3.85-7.27-.23-4.62-5.33-32.61-4.77-33.42a17.82,17.82,0,0,1,2.86-2.43Z"/><path class="cls-9" d="M251.34,399c-2,.83-6.12-9.94-6.12-9.94l4.39-2.63,12.24,16a17.82,17.82,0,0,0-2.86,2.43S253.36,398.18,251.34,399Z"/><path class="cls-10" d="M259.91,445.54a1.73,1.73,0,0,1-2.6-.33L228,401.38a1.66,1.66,0,0,1,.53-2.35l2.16-1.29,21.11,32c7-5.43,10.53-1.61,10.54-1.61.73,4.67,1.31,8.61,1.39,10.1C263.9,441.31,261.55,444,259.91,445.54Z"/><path class="cls-11" d="M273.89,434.61l1.23,24.49a1.66,1.66,0,0,1-1.66,1.75H220.75a1.71,1.71,0,0,1-1.71-2c.34-2.21,1.29-5.68,3.9-7.24,4-2.38,30.07-13.69,30.43-14.61a17.18,17.18,0,0,0,.43-3.72Z"/><path class="cls-9" d="M262.48,440.15c.43,2.14,11.67-.43,11.67-.43l-.26-5.11-20.09-1.3a17.18,17.18,0,0,1-.43,3.72S262.05,438,262.48,440.15Z"/><path class="cls-10" d="M219,458.88a1.71,1.71,0,0,0,1.71,2h52.71a1.66,1.66,0,0,0,1.66-1.75l-.12-2.51-38.37.25c.61-8.86-4.52-9.65-4.52-9.66-4.29,2-7.89,3.69-9.17,4.46C220.33,453.2,219.38,456.67,219,458.88Z"/></g><g id="PANTS"><path class="cls-12" d="M308.08,242.93s-21.68-1.63-29.28-1.63l-48.31-4.4s4.41,84.85,9.95,113.9,13.36,82.51,13.36,82.51,11.83,3.26,20.09,1.3c0,0-.51-14.63-1.06-34.58,17.25-13.56,49.91-40.13,53-49.23C330.08,338.38,308.08,242.93,308.08,242.93ZM272,364.76c-.58-29.57-.79-59.69.4-70.57l21.19,47.52C290.31,343.77,280.52,354.79,272,364.76Z"/><path class="cls-13" d="M272.38,294.19l1-17.72s20,54.32,20.21,65.24Z"/><polygon class="cls-13" points="271.98 364.76 272.82 400.03 278.44 395.58 273.85 362.59 271.98 364.76"/></g><g id="BODY"><g id="BODY-2" data-name="BODY"><path class="cls-11" d="M339.37,151.66c-5.87-7.5-34.31-23.88-34.31-23.88-15.24-5.62-48.24-12.71-57-10.19s-31.3,47.76-31.3,47.76c.25-3.75-10.92-41.72-11.24-44.17s.65-3.34-8.72-3.83-8.81.82-8.81.82c4.08,52.07,10,80.27,23,82.22s24.44-16.13,24.44-16.13c-5.21,19.39-4.89,52.64-4.89,52.64a152.42,152.42,0,0,0,31.62,9c17.12,2.77,46-2.94,46-2.94-1-7.82,2.44-23.79,2.44-23.79s45.48,4.23,48.89-3.59S345.24,159.16,339.37,151.66Zm-25.18,51.22c2.08-11.37,7.46-25.67,7.46-25.67l10.88,22.61C330.2,199.46,314.19,202.88,314.19,202.88Z"/><path class="cls-8" d="M332.53,199.82,330.7,196s9.1.8,13.93,3.37A65.31,65.31,0,0,0,332.53,199.82Z"/><path class="cls-8" d="M235.38,184.26l6.85-31.79s-10.59,18.75-13.69,28.69-2.25,16.35-12.78,19.1C215.76,200.26,224.3,200.29,235.38,184.26Z"/><path class="cls-8" d="M310.52,219.14s-7.62-.53-7.82-1.18a28.33,28.33,0,0,1-.32-4.24,22.43,22.43,0,0,0-6.89-2.16c-7.83-1-27.75,2.69-31.91,3.79s-16.5,6.6-16.5,6.6,1.1,5.62,5.38,7.09,21.51-5.87,30.44-3.79,25.18,17.68,25.18,17.68A117.12,117.12,0,0,1,310.52,219.14Z"/></g><path class="cls-14" d="M265.84,216.5a1.29,1.29,0,0,1-.71-.22,1.13,1.13,0,0,1-.5-.88l-.48-12.6a1.13,1.13,0,0,1,.91-1.14l9.84-2.35a1.26,1.26,0,0,1,.93.13,1.15,1.15,0,0,1,.54.72l2.81,11.63a1.12,1.12,0,0,1-.84,1.34l-12.16,3.32A1.27,1.27,0,0,1,265.84,216.5Zm.76-12.87.39,10.24,9.59-2.62-2.29-9.46Z"/><path class="cls-9" d="M303.23,204.1s.61,10.43-.53,13.86c0,0-9.33-1.92-11.13-1.1s-12.95.93-14.3-.29-2.52-.6-3.13-1.63a17.79,17.79,0,0,1-1.18-2.8s-2-2-2.21-3a2.61,2.61,0,0,1,.21-1.79s-2-1.53-2.12-2.71,1.38-1.89,1.38-1.89a2.92,2.92,0,0,1-1.59-1.74c-.28-1.18-.08-2.28,1.27-2s9-1.71,10.22-1.19,12.07,3.67,12.8,4.61S303.23,204.1,303.23,204.1Z"/><path class="cls-14" d="M269.8,211.9,266,196.42h0c-.43-1.29-6.49-.94-13.65.8s-12.7,4.22-12.48,5.56h0l3.77,15.48a11.62,11.62,0,0,0,14,8.54l3.58-.88A11.62,11.62,0,0,0,269.8,211.9Z"/><ellipse class="cls-15" cx="252.96" cy="199.64" rx="13.05" ry="2.41" transform="translate(-40.06 65.53) rotate(-13.69)"/><path class="cls-16" d="M241.12,207.89l2.53,10.38a11.62,11.62,0,0,0,14,8.54C248.08,226.81,243.18,214.94,241.12,207.89Z"/><path class="cls-17" d="M270.22,202.7a10.49,10.49,0,0,1,2.61-.27c1,.1,4.2,0,4.2,0a44.82,44.82,0,0,0-6-.92,4.31,4.31,0,0,1-2.47-.83A2.49,2.49,0,0,0,270.22,202.7Z"/><path class="cls-9" d="M204.5,118.53l-1.06-6.07a21.17,21.17,0,0,0,2.93-5.42c.65-2.36,7.09-9.13,7.74-9.62s1.59-1.58,1.06-2a5,5,0,0,0-4.93-.82c-2.44,1-7.25,4.85-7.37,4.85s-2.57-7.41-3.34-9-5-11.62-5.75-11.66a2.69,2.69,0,0,0-2,1.39s-.65-3-2.36-2.73a2.23,2.23,0,0,0-1.79,2.12,2.15,2.15,0,0,0-2,1.67,27.56,27.56,0,0,0,0,4.6,1.57,1.57,0,0,0-1.79,1.59c-.08,1.8.28,7.58.41,8.56s3,13.73,4.23,14.91.82,7.58.82,7.58S197.34,121,204.5,118.53Z"/></g><g id="HEAD"><path class="cls-9" d="M313.47,71.59s2.42,30.22-7.25,36.27-26.6,0-29-13.3-2.41-25.39,0-27.8S312.26,55.88,313.47,71.59Z"/><path class="cls-9" d="M313.47,83.68s2.42-4.84,6-2.42-1.26,13.09-6.67,12S313.47,83.68,313.47,83.68Z"/><path class="cls-9" d="M277.24,85.72s-2.42-4.84-6-2.42,1.26,13.09,6.67,12S277.24,85.72,277.24,85.72Z"/><path class="cls-9" d="M304.65,108.39l.41,19.39s-6.92,5.79-15.56,3.42-7.34-9.61-7.34-9.61l2.77-10.68Z"/><path class="cls-17" d="M284.93,110.91l-1.59,6.16c2.41,3.42,8.65,8.58,21.47-1.18h0l-.16-7.5Z"/><path class="cls-11" d="M316.31,61.2c-2.45-.57-3.18-4-5.22-3.91a16.84,16.84,0,0,0-4.15.81s-2-11.32-9.7-9.53-23.23,9.86-24,15.24-3.59,6.19-1.71,7.41,2.85,11.66,2.85,11.66,2.61,24.94,5.05,26.73,7.83,8.64,14.59,8.56,15.61-4.73,16.53-8.32S315.77,82,315.67,77.5,318.75,61.77,316.31,61.2Zm-7.42,35.08c-1.42,1.47-8.27-2.2-9.9-1.22s-5.91,1.43-8.6.65-6.8,3.14-9.45,3.14-3.67-17.17-3.67-17.17a13.78,13.78,0,0,0,2.85-5.81c.62-3.26,7.83-4.32,12.72-4.16s12.75-7.13,12.75-7.13-1,3.87-1.34,5,6.68,3.51,8.76,7.17S310.32,94.82,308.89,96.28Z"/><path class="cls-18" d="M282.09,109c-3.92-3-6-13.24-6.94-19.84,1,7.51,2.67,19.28,4.32,20.49,2.45,1.79,7.83,8.64,14.59,8.56a25.25,25.25,0,0,0,10.73-3C292.58,119.17,288,113.52,282.09,109Z"/><path class="cls-9" d="M288.76,99.65h12.07s-.73,4.61-6.54,4.61C289.83,104.26,288.76,99.65,288.76,99.65Z"/></g></g><g id="CHAIR"><line class="cls-19" x1="337.02" y1="389.72" x2="394.67" y2="444.75"/><line class="cls-19" x1="379.82" y1="389.72" x2="322.16" y2="444.75"/><line class="cls-20" x1="318.51" y1="459.22" x2="345.73" y2="357.03"/><line class="cls-20" x1="398.16" y1="459.22" x2="370.94" y2="357.03"/><rect class="cls-15" x="322.99" y="339.86" width="73.83" height="24.12" rx="9.98"/><path class="cls-14" d="M333.83,360.05h49a11.88,11.88,0,0,0,10.21-5.82,8.28,8.28,0,0,0,0-8.41A11.88,11.88,0,0,0,382.84,340h-49a11.86,11.86,0,0,0-10.2,5.82,8.28,8.28,0,0,0,0,8.41A11.86,11.86,0,0,0,333.83,360.05Z"/></g><g id="LADY"><g id="SHOES-2" data-name="SHOES"><path class="cls-11" d="M377.27,446.14l-4.21,14.56a1.59,1.59,0,0,0,1.47,2l37.55,1.49A1.72,1.72,0,0,0,413.8,462c-.64-2.37-2-5.82-4.38-6.53l-18.16-5.38.31-3.36Z"/><path class="cls-21" d="M391.26,450.11s-5.64,0-5.93,1.53-9.1-1.92-9.1-1.92l1-3.58,14.3.61Z"/><path class="cls-10" d="M374.53,462.72l37.55,1.49A1.72,1.72,0,0,0,413.8,462c-.64-2.37-2-5.82-4.38-6.53l-3.1-.91h0c-2.61,1-3.26,7.09-3.26,7.09l-30-1A1.59,1.59,0,0,0,374.53,462.72Z"/><path class="cls-8" d="M461,441.94l6,15.58a1.63,1.63,0,0,0,2.22.89l30.61-14.56a1.62,1.62,0,0,0,.57-2.49c-1.17-1.42-3.16-3.21-5.69-3.1-4.16.18-17.72,1.34-19.07,1a13.44,13.44,0,0,1-3.4-1.76Z"/><path class="cls-21" d="M474.46,438.87s-3.68,2.08-2.88,3.39-9.46,2.68-9.46,2.68l-1.16-3,11.25-4.4S474,438.65,474.46,438.87Z"/><path class="cls-10" d="M469.19,458.41l30.61-14.56a1.62,1.62,0,0,0,.57-2.49c-1.17-1.42-3.16-3.21-5.69-3.1-.78,0-1.88.1-3.17.19h0l3.05,5.67-27.76,13,.17.43A1.63,1.63,0,0,0,469.19,458.41Z"/></g><g id="PANTS-2" data-name="PANTS"><path class="cls-11" d="M341.33,302s-16.38,37.65-4.65,44.74,63.2,16.38,63.2,16.38-6.31,18.34-11.71,38-10.9,45-10.9,45,10,2.2,14.3.61l33.62-79s7.9,22.82,13.61,32S461,441.94,461,441.94s8.64-1.95,11.25-4.4c0,0-23.8-90.62-29-96.16s-51.83-26.08-53-28.85-3.42-11.37-3.42-11.37Z"/><path class="cls-22" d="M390.22,312.53s-13-2.85-17.84-3.44-25.65.47-32.2-4.28l1.15-2.79,45.47-.86Z"/><path class="cls-22" d="M436.43,351.81c3.18-14.83-8.07-15.48-15.4-20.54s-44.66-15.48-44.66-15.48,21.51,7.66,28.2,10.43,22.49,11.08,24.79,17.93-4.17,23.63-4.17,23.63,7.9,22.82,13.61,32c1.63,2.62,4.16,7.22,6.92,12.44h0C441.24,403.58,433.25,366.64,436.43,351.81Z"/></g><g id="BODY-3" data-name="BODY"><path class="cls-13" d="M344.26,292.24,341.33,302s18.94,3.05,26.4,1.71,19.07-2.57,19.07-2.57l-1.22-8.27Z"/><path class="cls-12" d="M384.11,225.25s14.83,5.38,17.28,9.7,15.4,29.17,15.4,29.17,9.13-30.88,9.94-31.37,9.62,1.46,9.7,2-5.38,55.18-10.1,57.46-15.73,0-15.73,0L396.83,269,392,281.07,403,284.58v8.07s-59.26,1.79-61.05-.9-8.23-52.4-2.2-57.45,26.08-11.37,26.08-11.37Z"/><path class="cls-13" d="M356.36,248.35l-.61,25.8L392,281.07s-23.8-8.51-27.71-9.8S356.36,248.35,356.36,248.35Z"/><path class="cls-13" d="M396.83,269s2.93-7,3.09-9.13-1.55-11.08-1.55-11.08,2.77,12.71,3,16.95,9.21,26.49,9.21,26.49Z"/><polygon class="cls-13" points="416.79 264.12 415.49 268.12 415.63 261.9 416.79 264.12"/><path class="cls-21" d="M403,284.58,415,287.06c.73.17,13.45,3.18,13.45,3.79s-.49,2-.86,2-24.64-.24-24.64-.24Z"/><path class="cls-21" d="M426.73,232.87l1.72-5.24s-1.83-4.82-1.29-6.81a37,37,0,0,0,1.13-7.84c-.15-1-1.75-5.58-1-6.31s3.62,1,4.13,2.49,1.24,5.47,1.24,5.47,4.09-5.36,4.56-6.16,6.89-7.84,8.14-7.73a3.09,3.09,0,0,1,1.87.77s2.1-1.46,3.55-.77-.2,2.18-.2,2.18,1.83,1.3,1.29,2.11-2.89,4.59-2.89,4.59.74.53.43,1.95-4.32,7.72-4.71,8.49-5,7.53-6.08,8.76-2.22,6-2.22,6S426.62,234.36,426.73,232.87Z"/></g><g id="HEAD-2" data-name="HEAD"><path class="cls-23" d="M358.38,155.82c-9.84-1.41-15,7.94-17.42,18.15s10.9,9,10.9,9l16-17.84S368.22,157.22,358.38,155.82Z"/><path class="cls-23" d="M383.05,160.62c-8.15,1.23-35.12,17.53-30.31,32.6s13.58,15.57,15.24,12.72,11.16-29.83,16.54-32.6S399,168.41,399,168.41,391.2,159.4,383.05,160.62Z"/><path class="cls-8" d="M351.86,183l5.11-5.7c-16.22,1.46-11-14.91-10.64-16A35.66,35.66,0,0,0,341,174C338.52,184.18,351.86,183,351.86,183Z"/><path class="cls-8" d="M357.55,177.23c-4.15,5-6.54,10.56-4.81,16,4.8,15.08,13.58,15.57,15.24,12.72.14-.26.36-.72.62-1.32C351.31,195.74,357.41,177.63,357.55,177.23Z"/><path class="cls-14" d="M370.13,166.5h0s-.81-3.12-5.82,0-15.78,12.86-11.5,19C355,178.17,362.75,171.2,370.13,166.5Z"/><path class="cls-21" d="M402.94,178.92c-13.51-9.14-20.94-2.11-25,7.76l-9.08,11.25s-2.36-4.46-4.89-3.24-4.19,10.35,4,11.25l-2.2,17s5.65,9.3,15,8.43c5.25-.49,3.3-6.11,3.3-6.11l.47-6.93a16.3,16.3,0,0,0,8-.47C403.67,214.37,402.94,178.92,402.94,178.92Z"/><path class="cls-24" d="M384.58,218.32s-5.72-1.71-8-3.42a31.34,31.34,0,0,0,7.81,5.79Z"/><path class="cls-23" d="M368.83,197.93s1.35,4.95.55,7.09a15.38,15.38,0,0,0,4.16-8.5s4.58-.18,5.68-4.52c0,0,13.88-.18,18.95-12.47a8,8,0,0,0,4.66,6.48s-.35,6.5-.68,9.11c0,0,9.71-22.8-3.12-26.71C399,168.41,367.61,165.59,368.83,197.93Z"/></g></g><g id="TABLE"><line class="cls-20" x1="548.02" y1="300.06" x2="577.85" y2="460.85"/><line class="cls-20" x1="388.17" y1="300.06" x2="358.34" y2="460.85"/><rect class="cls-25" x="347.68" y="292.48" width="240.82" height="7.58"/></g><g id="PC"><path class="cls-13" d="M488.25,275.68h-53.1a5.79,5.79,0,0,1-5.78-6.12l2.07-34.48a5.79,5.79,0,0,1,5.78-5.47h53.11a5.79,5.79,0,0,1,5.78,6.11L494,270.21A5.8,5.8,0,0,1,488.25,275.68Z"/><path class="cls-26" d="M491.58,275.68H438.47a5.8,5.8,0,0,1-5.78-6.12l2.08-34.48a5.79,5.79,0,0,1,5.78-5.47h53.1a5.78,5.78,0,0,1,5.78,6.11l-2.07,34.49A5.79,5.79,0,0,1,491.58,275.68Z"/><path class="cls-13" d="M479.87,287.33l-6.73-24.69h1.12v-5.88a4.11,4.11,0,0,0-4.1-4.1h-9.49a4.1,4.1,0,0,0-4.1,4.1v5.88l7,25.44a1.32,1.32,0,0,1-1.27,1.66H446.09v2.9h29.72A4.21,4.21,0,0,0,479.87,287.33Zm-8-3.82a3.75,3.75,0,1,1,3.75-3.75A3.75,3.75,0,0,1,471.87,283.51Z"/><path class="cls-27" d="M472.88,252.66h-9.49a4.11,4.11,0,0,0-4.1,4.1v5.88H477v-5.88A4.11,4.11,0,0,0,472.88,252.66Z"/><path class="cls-27" d="M483.7,287.1,477,262.64H459.29l1,3.66h0l6.26,23a2.68,2.68,0,0,1-2.39,3.37h15.31A4.39,4.39,0,0,0,483.7,287.1Zm-10.47-3.59a3.75,3.75,0,1,1,3.75-3.75A3.75,3.75,0,0,1,473.23,283.51Z"/><path class="cls-28" d="M483.7,287.1,477,262.64h0v-5.88a4.11,4.11,0,0,0-4.1-4.1h-9.49a4.11,4.11,0,0,0-4.1,4.1v5.88l1,3.66h0l6.26,23a2.68,2.68,0,0,1-2.39,3.37h15.31A4.39,4.39,0,0,0,483.7,287.1Zm-10.47-3.59a3.75,3.75,0,1,1,3.75-3.75A3.75,3.75,0,0,1,473.23,283.51Z"/><path class="cls-29" d="M483.7,287.35a.25.25,0,0,1-.25-.19l-6.62-24.32a.25.25,0,0,1-.1-.2v-5.88a3.85,3.85,0,0,0-3.85-3.84h-9.49a.26.26,0,0,1-.25-.26.25.25,0,0,1,.25-.25h9.49a4.35,4.35,0,0,1,4.35,4.35v5.73a.22.22,0,0,1,0,.08L483.94,287a.25.25,0,0,1-.18.31Z"/><path class="cls-29" d="M479.46,292.89a.25.25,0,1,1,0-.5,4.14,4.14,0,0,0,4-5.23l-6.66-24.45a.24.24,0,0,1,.18-.31.25.25,0,0,1,.31.17L483.94,287a4.64,4.64,0,0,1-4.48,5.86Z"/><path class="cls-12" d="M482.15,260.37h0a.42.42,0,0,1-.39-.44l1.14-20.39a.42.42,0,1,1,.83.05L482.57,260A.43.43,0,0,1,482.15,260.37Z"/><path class="cls-12" d="M484.87,260.37h0a.41.41,0,0,1-.39-.44l1.14-20.39a.41.41,0,0,1,.44-.39.42.42,0,0,1,.39.44L485.29,260A.43.43,0,0,1,484.87,260.37Z"/><path class="cls-12" d="M487.59,260.37h0a.43.43,0,0,1-.4-.44l1.15-20.39a.4.4,0,0,1,.44-.39.42.42,0,0,1,.39.44L488,260A.43.43,0,0,1,487.59,260.37Z"/><path class="cls-12" d="M490.31,260.37h0a.42.42,0,0,1-.39-.44L491,239.54a.41.41,0,0,1,.44-.39.42.42,0,0,1,.4.44L490.72,260A.42.42,0,0,1,490.31,260.37Z"/><path class="cls-12" d="M493,260.37h0a.41.41,0,0,1-.39-.44l1.14-20.39a.42.42,0,1,1,.83.05L493.44,260A.43.43,0,0,1,493,260.37Z"/><path class="cls-12" d="M439.76,260.37h0a.42.42,0,0,1-.39-.44l1.15-20.39a.4.4,0,0,1,.43-.39.42.42,0,0,1,.4.44L440.17,260A.42.42,0,0,1,439.76,260.37Z"/><path class="cls-12" d="M442.48,260.37h0a.42.42,0,0,1-.39-.44l1.14-20.39a.41.41,0,0,1,.44-.39.42.42,0,0,1,.4.44L442.89,260A.42.42,0,0,1,442.48,260.37Z"/><path class="cls-12" d="M445.19,260.37h0a.41.41,0,0,1-.39-.44l1.14-20.39a.4.4,0,0,1,.44-.39.41.41,0,0,1,.39.44L445.61,260A.43.43,0,0,1,445.19,260.37Z"/><path class="cls-12" d="M447.91,260.37h0a.43.43,0,0,1-.4-.44l1.15-20.39a.41.41,0,0,1,.44-.39.42.42,0,0,1,.39.44L448.33,260A.43.43,0,0,1,447.91,260.37Z"/><path class="cls-12" d="M450.63,260.37h0a.42.42,0,0,1-.39-.44l1.14-20.39a.41.41,0,0,1,.44-.39.42.42,0,0,1,.4.44L451,260A.42.42,0,0,1,450.63,260.37Z"/></g><g id="MUG"><path class="cls-30" d="M541.25,268.16c-5.7,0-10.32.71-10.32,1.59v15.92a6.81,6.81,0,0,0,6.81,6.81h7a6.81,6.81,0,0,0,6.81-6.81V269.75C551.58,268.87,547,268.16,541.25,268.16Z"/><path class="cls-31" d="M530.93,269.75v15.92a6.81,6.81,0,0,0,6.81,6.81h7A6.79,6.79,0,0,0,550,290c-12.52,1.78-11.12-4.46-13.44-8.58-1.78-3.15-1.77-9.95-1.66-13C532.48,268.79,530.93,269.24,530.93,269.75Z"/><ellipse class="cls-8" cx="541.25" cy="269.75" rx="9.64" ry="1.48"/></g><g id="CALENDAR"><polygon class="cls-8" points="509.04 292.48 500.37 292.48 504.7 270.44 509.04 292.48"/><polygon class="cls-2" points="504.7 270.44 531.78 270.44 536.12 292.48 509.04 292.48 504.7 270.44"/><polygon class="cls-32" points="504.7 270.44 531.78 270.44 532.78 275.52 505.7 275.52 504.7 270.44"/></g><path class="cls-33" d="M444.31,137.23c-16.4,1.94-28.6,12.75-27.25,24.14.58,4.92,3.61,9.15,8.18,12.2l-5.17,13.21,12.6-9.71a39.74,39.74,0,0,0,16.53,1.39c16.4-1.94,28.6-12.75,27.25-24.14S460.71,135.28,444.31,137.23Z"/><path class="cls-34" d="M441.6,159.46a2.83,2.83,0,0,1-.43-.05l-.55-.08-.56-.08a2.32,2.32,0,0,0-.37,0,2.5,2.5,0,0,0-.8.11,18.29,18.29,0,0,0-.52,2.7c-.14,1.08-.22,2.34-.26,3.79a2.93,2.93,0,0,1-.72.14,2.22,2.22,0,0,1-.51-.06,1.18,1.18,0,0,1-.49-.24,1.4,1.4,0,0,1-.37-.48,1.69,1.69,0,0,1-.16-.81,4.75,4.75,0,0,1,.05-.56c0-.23,0-.4,0-.49a10,10,0,0,1,.08-1.07c.05-.51.12-1.1.19-1.79s.17-1.42.27-2.23.19-1.6.26-2.4.14-1.54.2-2.24.08-1.3.08-1.78v-.33a.35.35,0,0,1,.3-.39,2.39,2.39,0,0,1,.45-.05l.83.22a.77.77,0,0,1,.4.29,1.66,1.66,0,0,1,.24.5,3.8,3.8,0,0,1,.11.62c0,.22,0,.44,0,.64a5.54,5.54,0,0,1-.06.67c0,.29-.07.61-.11.95s-.08.69-.11,1a7.62,7.62,0,0,0-.06.87.59.59,0,0,0,.39.63,4.11,4.11,0,0,0,1.14.12h.33a5.28,5.28,0,0,0,.61,0,2.88,2.88,0,0,1,.36,0H442c.24-1,.46-2.12.65-3.35s.39-2.63.57-4.2c.09-.63.29-.95.58-1H444a2.21,2.21,0,0,1,.88.15.74.74,0,0,1,.43.46c0,.45-.07,1.06-.16,1.85s-.18,1.66-.29,2.63-.22,2-.34,3.06-.24,2.12-.35,3.12-.2,1.95-.26,2.82-.1,1.58-.1,2.13c0,.3,0,.58,0,.85s0,.53.05.79a.66.66,0,0,1-.13.37.38.38,0,0,1-.32.19,1.74,1.74,0,0,1-1.54-.63,3.24,3.24,0,0,1-.43-1.82c0-.11,0-.25,0-.44s0-.38,0-.6,0-.41,0-.59,0-.33,0-.45,0-.37,0-.69.06-.65.09-1,.07-.69.1-1,0-.57,0-.73Z"/><path class="cls-34" d="M450.37,164.45a1,1,0,0,1-.11.44,2.39,2.39,0,0,1-.42.53,4.6,4.6,0,0,1-.87-.08,1.47,1.47,0,0,1-1.15-1.06,3.67,3.67,0,0,1-.17-1.27,4.38,4.38,0,0,0-.1-.95,4.91,4.91,0,0,1-.09-.94,21,21,0,0,0-.17-2.69,21,21,0,0,1-.17-2.69,1,1,0,0,1,.47-.89l.53-.12.55-.1a1.32,1.32,0,0,1,.59.32l.36.4a5.27,5.27,0,0,0,0,.56c0,.18,0,.38,0,.58,0,.7,0,1.45.11,2.25s.16,1.55.25,2.27.18,1.38.27,2,.14,1,.18,1.36Zm-2.44-15.61a.65.65,0,0,1,.5-.14,1.87,1.87,0,0,1,.56.09,2,2,0,0,1,.54.28,1.74,1.74,0,0,1,.41.4.84.84,0,0,1,.15.47.81.81,0,0,1-.26.71,1.31,1.31,0,0,1-.74.18,2.27,2.27,0,0,1-.62-.09,3.05,3.05,0,0,1-.57-.24,1.65,1.65,0,0,1-.4-.29.41.41,0,0,1-.16-.29,2.51,2.51,0,0,1,.07-.59A1,1,0,0,1,447.93,148.84Z"/><path class="cls-34" d="M452.81,165.5c0-.24.17-.47.52-.69a5.36,5.36,0,0,1,.5-.29.76.76,0,0,1,.36-.1,1.86,1.86,0,0,1,.88.39,1.2,1.2,0,0,1,.48.86.3.3,0,0,0,0,.1.22.22,0,0,1,0,.09,1.19,1.19,0,0,1-.17.65c-.11.2-.24.3-.38.3a.53.53,0,0,0-.28.12.53.53,0,0,1-.28.1A2.28,2.28,0,0,1,452.81,165.5Zm2.19-2q-1.41-.27-1.5-1.38c0-.21,0-.4,0-.59V161a22.39,22.39,0,0,1,.21-2.92c.14-1.07.36-2.22.65-3.46.43-1.88.75-3.34,1-4.38s.35-1.68.39-1.94a.63.63,0,0,1,.29-.42,1,1,0,0,1,.52-.13,1.25,1.25,0,0,1,.3.05l.94.28a.69.69,0,0,1,.5.64,52.28,52.28,0,0,1-1.41,7,29.29,29.29,0,0,0-1,6.77v.41a.55.55,0,0,1-.24.42.73.73,0,0,1-.48.19Z"/><g id="PLANTS"><g id="plant"><path class="cls-35" d="M166.82,298.33c-.8,3.75.36,8.21-.29,12.06-.83,4.83-3.89,6.21-6,9.25-2.46,3.61-3.58,10.36-2.69,16.12.56,3.56,1.78,6.55,2.68,9.83s1.51,7.28.74,10.68c-1.17,5.12-7.4,9.11-7.4,30.84,0,19.83,14.16,27.54,18.18,32.4V290.9l-1.82,1.76A10.49,10.49,0,0,0,166.82,298.33Z"/><path class="cls-36" d="M183.35,345.59c.91-3.28,2.12-6.27,2.68-9.83.9-5.76-.22-12.51-2.68-16.12-2.07-3-5.14-4.42-6-9.25-.66-3.85.51-8.31-.29-12.06a10.55,10.55,0,0,0-3.44-5.67l-1.82-1.76V419.51c4-4.86,18.17-12.57,18.17-32.4,0-21.73-6.23-25.72-7.39-30.84C181.85,352.87,182.45,348.86,183.35,345.59Z"/><path class="cls-37" d="M190.5,370c-1.07,1.42-.6,3.54-1.56,5-1.22,1.85-3.9,1.78-6,2.61a6.6,6.6,0,0,0-4,6.22,24.59,24.59,0,0,0,1.14,4.72,5.42,5.42,0,0,1-.56,4.66c-1.53,1.91-7.13,2.25-9.51,11.41-2.18,8.36,8.7,14.67,11.49,17.58L195.67,368l-1.69.35A5.59,5.59,0,0,0,190.5,370Z"/><path class="cls-38" d="M197.93,377.36c-.12-1.77,1.34-3.4,1.09-5.15a5.55,5.55,0,0,0-2.23-3.13L195.48,368l-14.12,54.22c3.85-1.18,16.43-1.38,18.61-9.74,2.38-9.16-2.34-12.19-2.74-14.6a5.37,5.37,0,0,1,1.78-4.34,25.26,25.26,0,0,0,3.3-3.57,6.59,6.59,0,0,0-.45-7.37C200.47,380.81,198.09,379.57,197.93,377.36Z"/><path class="cls-11" d="M179.65,427.58c-4.22-6.33-31-11.32-31-11.32s8.83,9.46,8.83,15.82A28.13,28.13,0,0,1,156,439.3,14.36,14.36,0,0,0,169.62,458h.83c1.72-3.66,3.39-8,3.39-10.93C173.84,441,183.87,433.92,179.65,427.58Z"/><path class="cls-39" d="M206.6,439.3a28.13,28.13,0,0,1-1.51-7.22c0-6.36,8.83-15.82,8.83-15.82H148.65s26.78,5,31,11.32-5.81,13.37-5.81,19.48c0,3-1.67,7.27-3.39,10.93H193A14.36,14.36,0,0,0,206.6,439.3Z"/></g><path class="cls-40" d="M607.93,421.82c2-2.26,11-5.7,14.79-11.26s17-25,27-21.16-8.68,17.36-14.24,24.15-6,26.45-20.71,26.45S603.59,426.84,607.93,421.82Z"/><path class="cls-41" d="M607.08,371.22s7,.21,6.37,10.11-3.32,17.29-2.78,22.59,5.36,25.56-3.59,26.92-19.27-1.69-14.79-16.28S592.7,368.38,607.08,371.22Z"/><path class="cls-42" d="M604.91,383s-6.52,59.86-6.52,80.39"/><path class="cls-42" d="M600.38,463.42s3.77-36.81,44.68-68.64"/><path class="cls-43" d="M533.09,414.91c-.4,2.19,1.1,8.23,0,10.13s-3.13,6.08-1.35,9.76,4,13.93-8.17,14.24-10.06-13.2-8.71-15.83,3.19-5.16,3.8-10.62,1.17-7.37,7.86-12.4,7.67-6,9.21-4.12S533.88,410.49,533.09,414.91Z"/><path class="cls-44" d="M528.48,416.88s-9.86,20.87-3.52,44.56"/><line class="cls-44" x1="524.53" y1="429.38" x2="530.08" y2="423.45"/><line class="cls-44" x1="523.4" y1="436.02" x2="519.95" y2="430.32"/><line class="cls-44" x1="522.84" y1="444.23" x2="529.83" y2="438.03"/></g></g></g></g></svg>